<svg width="632" height="388" viewBox="0 0 632 388" fill="none" xmlns="http://www.w3.org/2000/svg">
<path d="M119.511 0L0 228.577L17.9267 256.164H161.34L131.462 208.872H73.6986L109.552 126.111L133.454 76.8491L139.43 90.6425L223.088 256.164H489.996L466.094 206.901H414.306C441.395 137.54 389.74 112.318 360.526 108.377V102.465C370.087 91.4307 368.493 62.3988 366.501 49.2622C363.314 14.5816 325.336 1.97049 306.746 0H209.145L235.039 49.2622H296.786C302.762 49.2622 315.111 53.9914 316.705 72.9081C318.298 91.8248 304.09 100.495 296.786 102.465H266.909L296.786 153.698H346.583C353.886 153.041 368.891 156.063 370.485 173.403C372.078 190.743 357.87 197.706 350.566 199.019H254.957L151.381 0H119.511Z" fill="white"/>
<path d="M121.503 169.462V147.787H143.414V169.462H121.503Z" fill="white"/>
<path d="M452.151 167.492V147.787H472.07V167.492H452.151Z" fill="white"/>
<path d="M617.475 254.193H553.736L462.11 76.8491L448.167 96.554L420.281 53.2032L448.167 1.97049H480.037L617.475 254.193Z" fill="white"/>
<path d="M7.01782 331.507C7.01782 326.734 8.09394 322.453 10.2462 318.663C12.3984 314.827 15.3227 311.832 19.0189 309.68C22.7619 307.528 26.9027 306.452 31.4411 306.452C36.7749 306.452 41.4303 307.738 45.4073 310.312C49.3842 312.885 52.2851 316.534 54.1098 321.26H46.46C45.1032 318.312 43.1381 316.043 40.5647 314.452C38.0382 312.862 34.997 312.066 31.4411 312.066C28.0256 312.066 24.961 312.862 22.2473 314.452C19.5336 316.043 17.4047 318.312 15.8607 321.26C14.3167 324.161 13.5447 327.576 13.5447 331.507C13.5447 335.39 14.3167 338.805 15.8607 341.753C17.4047 344.654 19.5336 346.9 22.2473 348.491C24.961 350.081 28.0256 350.877 31.4411 350.877C34.997 350.877 38.0382 350.105 40.5647 348.561C43.1381 346.97 45.1032 344.701 46.46 341.753H54.1098C52.2851 346.432 49.3842 350.058 45.4073 352.631C41.4303 355.158 36.7749 356.421 31.4411 356.421C26.9027 356.421 22.7619 355.368 19.0189 353.263C15.3227 351.111 12.3984 348.14 10.2462 344.35C8.09394 340.56 7.01782 336.279 7.01782 331.507ZM133.939 345.122H112.604L108.673 356H101.936L119.622 307.364H126.991L144.607 356H137.869L133.939 345.122ZM132.114 339.928L123.271 315.224L114.428 339.928H132.114ZM219.478 356L207.828 335.998H200.108V356H193.722V307.083H209.513C213.209 307.083 216.32 307.715 218.847 308.978C221.42 310.241 223.338 311.949 224.602 314.101C225.865 316.254 226.497 318.71 226.497 321.471C226.497 324.839 225.514 327.81 223.549 330.384C221.631 332.957 218.73 334.665 214.846 335.507L227.128 356H219.478ZM200.108 330.875H209.513C212.975 330.875 215.572 330.033 217.303 328.348C219.034 326.617 219.9 324.325 219.9 321.471C219.9 318.57 219.034 316.324 217.303 314.733C215.618 313.142 213.022 312.347 209.513 312.347H200.108V330.875ZM303.584 356L291.934 335.998H284.214V356H277.828V307.083H293.618C297.315 307.083 300.426 307.715 302.953 308.978C305.526 310.241 307.444 311.949 308.708 314.101C309.971 316.254 310.602 318.71 310.602 321.471C310.602 324.839 309.62 327.81 307.655 330.384C305.736 332.957 302.836 334.665 298.952 335.507L311.234 356H303.584ZM284.214 330.875H293.618C297.081 330.875 299.677 330.033 301.409 328.348C303.14 326.617 304.005 324.325 304.005 321.471C304.005 318.57 303.14 316.324 301.409 314.733C299.724 313.142 297.128 312.347 293.618 312.347H284.214V330.875ZM368.32 307.083V356H361.933V307.083H368.32ZM426.998 312.277V328.629H444.825V333.893H426.998V350.736H446.93V356H420.612V307.013H446.93V312.277H426.998ZM523.758 356L512.108 335.998H504.388V356H498.001V307.083H513.792C517.488 307.083 520.6 307.715 523.126 308.978C525.699 310.241 527.618 311.949 528.881 314.101C530.144 316.254 530.776 318.71 530.776 321.471C530.776 324.839 529.793 327.81 527.828 330.384C525.91 332.957 523.009 334.665 519.126 335.507L531.408 356H523.758ZM504.388 330.875H513.792C517.254 330.875 519.851 330.033 521.582 328.348C523.313 326.617 524.179 324.325 524.179 321.471C524.179 318.57 523.313 316.324 521.582 314.733C519.898 313.142 517.301 312.347 513.792 312.347H504.388V330.875ZM597.617 356.491C594.389 356.491 591.488 355.93 588.914 354.807C586.388 353.637 584.399 352.046 582.949 350.035C581.499 347.976 580.75 345.613 580.703 342.946H587.511C587.745 345.239 588.681 347.18 590.318 348.771C592.002 350.315 594.435 351.087 597.617 351.087C600.658 351.087 603.044 350.339 604.776 348.841C606.553 347.297 607.442 345.332 607.442 342.946C607.442 341.075 606.928 339.554 605.898 338.384C604.869 337.215 603.582 336.326 602.038 335.717C600.494 335.109 598.412 334.454 595.792 333.752C592.564 332.91 589.967 332.068 588.002 331.226C586.084 330.384 584.423 329.074 583.019 327.296C581.662 325.471 580.984 323.038 580.984 319.997C580.984 317.33 581.662 314.967 583.019 312.908C584.376 310.85 586.271 309.259 588.704 308.136C591.184 307.013 594.014 306.452 597.196 306.452C601.781 306.452 605.524 307.598 608.425 309.891C611.373 312.183 613.034 315.224 613.408 319.014H606.39C606.156 317.143 605.173 315.505 603.442 314.101C601.711 312.651 599.418 311.926 596.564 311.926C593.897 311.926 591.722 312.628 590.037 314.031C588.353 315.388 587.511 317.306 587.511 319.786C587.511 321.564 588.002 323.015 588.985 324.137C590.014 325.26 591.254 326.126 592.704 326.734C594.201 327.296 596.284 327.951 598.95 328.699C602.179 329.588 604.776 330.477 606.741 331.366C608.706 332.208 610.39 333.542 611.794 335.367C613.197 337.144 613.899 339.577 613.899 342.665C613.899 345.052 613.268 347.297 612.004 349.403C610.741 351.508 608.869 353.216 606.39 354.526C603.91 355.836 600.986 356.491 597.617 356.491Z" fill="white"/>
</svg>
