<svg width="60" height="60" viewBox="0 0 60 60" fill="none" xmlns="http://www.w3.org/2000/svg">
<path d="M34.0089 42.2727C33.3955 42.3299 32.7797 42.1915 32.2498 41.8772C32.0587 41.681 31.9141 41.4443 31.8268 41.1847C31.7395 40.925 31.7116 40.6491 31.7454 40.3772C31.7596 39.9188 31.8144 39.4625 31.9089 39.0136C32.0005 38.4987 32.1187 37.9889 32.2634 37.4863L33.8725 31.9499C34.0385 31.4034 34.1482 30.8414 34.1998 30.2726C34.1998 29.659 34.2816 29.2362 34.2816 28.9908C34.2985 28.4509 34.1933 27.9142 33.9737 27.4207C33.7541 26.9272 33.4258 26.4897 33.0134 26.1408C31.9858 25.3519 30.7061 24.9641 29.4134 25.0499C28.4871 25.0638 27.5679 25.2155 26.6861 25.4999C25.7225 25.7999 24.7088 26.159 23.6452 26.5772L23.1816 28.3772C23.4952 28.2681 23.8771 28.1454 24.3134 28.009C24.7297 27.8857 25.1611 27.8214 25.5952 27.8181C26.2042 27.7521 26.817 27.9017 27.327 28.2408C27.4985 28.4454 27.6267 28.6825 27.7041 28.938C27.7814 29.1934 27.8062 29.4619 27.777 29.7272C27.7755 30.1858 27.7252 30.6429 27.627 31.0908C27.5315 31.5681 27.4088 32.0726 27.2588 32.6044L25.6361 38.168C25.5054 38.6851 25.4007 39.2085 25.3225 39.7362C25.2588 40.1879 25.2269 40.6436 25.227 41.0998C25.2237 41.6432 25.3449 42.1801 25.5813 42.6694C25.8177 43.1587 26.1629 43.5873 26.5906 43.9225C27.6341 44.7237 28.932 45.1208 30.2451 45.0407C31.1698 45.0597 32.0912 44.9261 32.9724 44.6452C33.7452 44.3815 34.777 44.0043 36.0679 43.5134L36.5043 41.7952C36.1547 41.9403 35.7945 42.0588 35.427 42.1497C34.9623 42.2558 34.4851 42.2972 34.0089 42.2727ZM35.7134 16.0227C34.9713 15.3412 33.9934 14.9745 32.9861 15C31.9793 14.9773 31.0025 15.3436 30.2588 16.0227C28.8957 17.1981 28.7435 19.256 29.919 20.6193C30.0237 20.7408 30.1373 20.8544 30.2588 20.9591C31.8118 22.3482 34.1605 22.3482 35.7133 20.9591C37.0764 19.7721 37.2193 17.705 36.0323 16.3418C35.9335 16.2282 35.827 16.1216 35.7134 16.0227Z" fill="#FF0000"/>
<path d="M30 0C13.4314 0 0 13.4314 0 30C0 46.5686 13.4314 60 30 60C46.5686 60 60 46.5686 60 30C60 13.4314 46.5686 0 30 0ZM30 57.2727C14.9377 57.2727 2.7273 45.0623 2.7273 30C2.7273 14.9377 14.9377 2.7273 30 2.7273C45.0623 2.7273 57.2727 14.9377 57.2727 30C57.2727 45.0623 45.0623 57.2727 30 57.2727Z" fill="#FF0000"/>
</svg>
