<svg width="40" height="40" viewBox="0 0 40 40" fill="none" xmlns="http://www.w3.org/2000/svg">
<path d="M29.375 7.10938H10.625C8.68648 7.10938 7.10938 8.68656 7.10938 10.625V29.375C7.10938 31.3135 8.68656 32.8906 10.625 32.8906H29.375C31.3135 32.8906 32.8906 31.3134 32.8906 29.375V10.625C32.8906 8.68648 31.3134 7.10938 29.375 7.10938ZM20 28.2031C15.4773 28.2031 11.7969 24.5227 11.7969 20C11.7969 15.4773 15.4773 11.7969 20 11.7969C24.5227 11.7969 28.2031 15.4773 28.2031 20C28.2031 24.5227 24.5227 28.2031 20 28.2031ZM28.2031 14.1406C26.9109 14.1406 25.8594 13.0891 25.8594 11.7969C25.8594 10.5047 26.9109 9.45312 28.2031 9.45312C29.4953 9.45312 30.5469 10.5047 30.5469 11.7969C30.5469 13.0891 29.4953 14.1406 28.2031 14.1406Z" fill="white"/>
<path d="M20 14.1406C16.7694 14.1406 14.1406 16.7694 14.1406 20C14.1406 23.2306 16.7694 25.8594 20 25.8594C23.2306 25.8594 25.8594 23.2306 25.8594 20C25.8594 16.7694 23.2306 14.1406 20 14.1406Z" fill="white"/>
<path d="M34.0625 0H5.9375C2.70687 0 0 2.70687 0 5.9375V34.0625C0 37.2931 2.70687 40 5.9375 40H34.0625C37.2931 40 40 37.2931 40 34.0625V5.9375C40 2.70687 37.2931 0 34.0625 0ZM35.2344 29.375C35.2344 32.6056 32.6056 35.2344 29.375 35.2344H10.625C7.39437 35.2344 4.76562 32.6056 4.76562 29.375V10.625C4.76562 7.39437 7.39437 4.76562 10.625 4.76562H29.375C32.6056 4.76562 35.2344 7.39437 35.2344 10.625V29.375Z" fill="white"/>
</svg>
