<svg width="40" height="40" viewBox="0 0 40 40" fill="none" xmlns="http://www.w3.org/2000/svg">
<path d="M28.0298 14.1703L17.8866 22.4612L17.4094 22.8522C17.3045 22.9353 17.2361 23.0559 17.2184 23.1885L17.1116 24.0703L16.8184 26.5476C16.8212 26.5777 16.8118 26.6077 16.7924 26.631C16.773 26.6542 16.7452 26.6688 16.715 26.6715C16.6849 26.6742 16.6549 26.6648 16.6317 26.6454C16.6085 26.626 16.5939 26.5982 16.5912 26.5681L15.7662 24.0908L14.9139 21.5567C14.8775 21.4431 14.8822 21.3204 14.927 21.2099C14.9719 21.0995 15.0541 21.0082 15.1594 20.9522L25.7139 14.9022L27.7003 13.7658C27.9889 13.5976 28.2844 13.9612 28.0298 14.1703Z" fill="white"/>
<path d="M34.5455 0H5.45455C4.00791 0 2.62053 0.574674 1.5976 1.5976C0.574674 2.62053 0 4.00791 0 5.45455L0 34.5455C0 35.9921 0.574674 37.3795 1.5976 38.4024C2.62053 39.4253 4.00791 40 5.45455 40H34.5455C35.9921 40 37.3795 39.4253 38.4024 38.4024C39.4253 37.3795 40 35.9921 40 34.5455V5.45455C40 4.00791 39.4253 2.62053 38.4024 1.5976C37.3795 0.574674 35.9921 0 34.5455 0ZM32.475 11.5773L28.5705 28.8295C28.3864 29.6386 27.3591 30.0045 26.6386 29.5114L20.7432 25.5114L17.7409 28.35C17.6185 28.4649 17.4699 28.5481 17.308 28.5926C17.1461 28.637 16.9758 28.6413 16.8119 28.605C16.648 28.5687 16.4954 28.493 16.3674 28.3844C16.2394 28.2758 16.1398 28.1376 16.0773 27.9818L14.9932 24.8L13.9091 21.6182L8.09773 20.0273C7.93524 19.9918 7.78903 19.9036 7.68182 19.7765C7.57461 19.6493 7.51241 19.4903 7.5049 19.3242C7.49738 19.1581 7.54496 18.9941 7.64025 18.8578C7.73554 18.7215 7.8732 18.6205 8.03182 18.5705L30.4818 10.4818L30.8955 10.3341C31.7659 10.0295 32.6659 10.7341 32.475 11.5773Z" fill="white"/>
</svg>
