<svg width="60" height="45" viewBox="0 0 60 45" fill="none" xmlns="http://www.w3.org/2000/svg">
<path d="M0.156563 22.4646L8.61047 8.82043C8.69154 8.68963 8.79977 8.58273 8.9259 8.50889C9.05202 8.43505 9.1923 8.39647 9.33469 8.39645H18.7866V0.984005C18.7865 0.854757 18.8093 0.726772 18.8536 0.607362C18.8979 0.487952 18.9627 0.379458 19.0446 0.288078C19.1264 0.196697 19.2235 0.124222 19.3304 0.0747928C19.4372 0.0253634 19.5518 -5.15257e-05 19.6675 7.84276e-08H26.2816C26.5135 0.00298801 26.7349 0.107982 26.8979 0.292206C27.0609 0.476431 27.1523 0.725028 27.1523 0.984071C27.1523 1.24311 27.0609 1.49171 26.8979 1.67593C26.7349 1.86016 26.5135 1.96515 26.2816 1.96814H20.5481V25.1894H58.2386V1.96814H30.4308C30.199 1.96515 29.9775 1.86016 29.8146 1.67593C29.6516 1.49171 29.5602 1.24311 29.5602 0.984071C29.5602 0.725028 29.6516 0.476431 29.8146 0.292206C29.9775 0.107982 30.199 0.00298801 30.4308 7.84276e-08H59.1192C59.2349 -3.43281e-05 59.3494 0.0253976 59.4563 0.0748429C59.5632 0.124288 59.6603 0.196778 59.7421 0.28817C59.8239 0.379562 59.8888 0.488066 59.933 0.607483C59.9773 0.726899 60 0.854888 60 0.984136V37.7185C60 37.8477 59.9773 37.9757 59.933 38.0951C59.8888 38.2146 59.8239 38.3231 59.7421 38.4145C59.6603 38.5059 59.5632 38.5783 59.4563 38.6278C59.3494 38.6772 59.2349 38.7027 59.1192 38.7026H55.242C54.8107 42.2533 52.0812 45 48.7867 45C45.4922 45 42.7624 42.2533 42.3313 38.7026H15.7901C15.3585 42.2533 12.6293 45 9.33469 45C6.04008 45 3.31055 42.2533 2.8793 38.7026H0.880779C0.765114 38.7027 0.650581 38.6772 0.543713 38.6278C0.436844 38.5784 0.339741 38.5059 0.257946 38.4145C0.176155 38.3231 0.111275 38.2146 0.0670166 38.0952C0.0227547 37.9758 -1.52588e-05 37.8479 0 37.7186V23.0247C0 22.8247 0.054493 22.6294 0.156563 22.4646ZM19.6673 27.1575C19.5517 27.1575 19.4372 27.1321 19.3303 27.0826C19.2235 27.0332 19.1264 26.9607 19.0446 26.8693C18.9628 26.7779 18.8979 26.6695 18.8537 26.5501C18.8094 26.4307 18.7867 26.3027 18.7867 26.1735V10.3646H9.79605L1.76144 23.3321V33.5858H3.97336C5.15074 31.6856 7.1141 30.4371 9.33469 30.4371C11.5553 30.4371 13.5186 31.6856 14.6955 33.5858H43.4257C44.6026 31.6856 46.566 30.4371 48.7866 30.4371C51.0071 30.4371 52.9706 31.6856 54.1479 33.5858H58.2387V27.1575H19.6673ZM42.5643 35.5539H15.5571C15.6643 35.9394 15.7423 36.3344 15.7901 36.7345H42.3313C42.3791 36.3344 42.457 35.9394 42.5643 35.5539ZM58.2386 35.6194V35.5539H55.0095C55.1163 35.9395 55.1941 36.3344 55.242 36.7345H58.2384L58.2386 35.6194ZM48.7867 43.0319C51.4086 43.0319 53.5419 40.6483 53.5419 37.7185C53.5419 34.7887 51.4088 32.4053 48.7867 32.4053C46.1646 32.4053 44.0313 34.7887 44.0313 37.7185C44.0313 40.6483 46.1645 43.0319 48.7866 43.0319H48.7867ZM9.33469 43.0319C11.9568 43.0319 14.0899 40.6483 14.0899 37.7185C14.0899 34.7887 11.9568 32.4053 9.33469 32.4053C6.71262 32.4053 4.57945 34.7887 4.57945 37.7185C4.57945 40.6483 6.71262 43.0319 9.33469 43.0319ZM1.76144 36.7345H2.87942C2.92728 36.3344 3.00505 35.9395 3.11191 35.5539H1.76144V36.7345Z" fill="#FF0000"/>
<path d="M15.9099 24.009H5.5772C4.88814 24.009 4.46111 23.1214 4.84431 22.4791L10.4803 13.0331C10.5607 12.8983 10.6697 12.7876 10.7975 12.7111C10.9254 12.6346 11.0682 12.5946 11.2132 12.5946H15.9099C16.0255 12.5946 16.1401 12.6201 16.2469 12.6695C16.3538 12.719 16.4509 12.7914 16.5327 12.8828C16.6144 12.9742 16.6793 13.0827 16.7236 13.2021C16.7678 13.3215 16.7906 13.4495 16.7905 13.5788V23.0247C16.7906 23.1539 16.7678 23.2819 16.7236 23.4013C16.6793 23.5207 16.6144 23.6292 16.5327 23.7206C16.4509 23.812 16.3538 23.8845 16.2469 23.9339C16.1401 23.9834 16.0255 24.0088 15.9099 24.0088V24.009ZM15.0291 14.5629H11.6842L7.2224 22.0408H15.0291V14.5629ZM15.9099 27.1575H14.0311C13.5445 27.1575 13.1504 26.7172 13.1504 26.1735C13.1504 25.6298 13.5445 25.1894 14.0311 25.1894H15.9099C16.3964 25.1894 16.7905 25.6297 16.7905 26.1735C16.7905 26.7173 16.3964 27.1575 15.9099 27.1575ZM9.33447 33.5858C11.3739 33.5858 13.0333 35.4399 13.0333 37.7186C13.0333 39.9974 11.3739 41.8513 9.33447 41.8513C7.29506 41.8513 5.6358 39.9972 5.6358 37.7185C5.6358 35.4398 7.29517 33.5858 9.33447 33.5858ZM9.33447 39.8832C10.4025 39.8832 11.2717 38.9124 11.2717 37.7186C11.2717 36.5249 10.4025 35.554 9.33459 35.554C8.26607 35.554 7.39724 36.5247 7.39724 37.7185C7.39724 38.9123 8.26607 39.8832 9.33447 39.8832ZM48.7863 33.5858C50.8258 33.5858 52.4851 35.4399 52.4851 37.7186C52.4851 39.9974 50.8258 41.8513 48.7863 41.8513C46.7469 41.8513 45.0877 39.9972 45.0877 37.7185C45.0877 35.4398 46.7471 33.5858 48.7865 33.5858H48.7863ZM48.7863 39.8832C49.8549 39.8832 50.7237 38.9124 50.7237 37.7186C50.7237 36.5249 49.8549 35.554 48.7865 35.554C47.7184 35.554 46.8491 36.5247 46.8491 37.7185C46.8491 38.9123 47.7184 39.8832 48.7863 39.8832ZM46.9663 6.23191C46.9663 6.10267 46.989 5.97468 47.0333 5.85526C47.0775 5.73584 47.1424 5.62734 47.2242 5.53595C47.306 5.44456 47.4031 5.37207 47.51 5.32262C47.6169 5.27318 47.7314 5.24774 47.8471 5.24778H53.483C53.7148 5.25077 53.9362 5.35576 54.0992 5.53998C54.2622 5.72421 54.3536 5.97281 54.3536 6.23185C54.3536 6.49089 54.2622 6.73949 54.0992 6.92371C53.9362 7.10794 53.7148 7.21293 53.483 7.21592H47.847C47.6134 7.21592 47.3894 7.11225 47.2242 6.92772C47.059 6.74319 46.9663 6.4929 46.9663 6.23191ZM48.8449 9.38047C48.8449 9.25123 48.8677 9.12326 48.912 9.00386C48.9562 8.88445 49.0211 8.77597 49.1029 8.68459C49.1847 8.59321 49.2818 8.52073 49.3887 8.47129C49.4955 8.42186 49.6101 8.39643 49.7257 8.39646H53.4831C53.9697 8.39646 54.3638 8.83681 54.3638 9.3806C54.3638 9.92439 53.9697 10.3646 53.4831 10.3646H49.7257C49.6101 10.3646 49.4955 10.3392 49.3887 10.2898C49.2818 10.2403 49.1847 10.1679 49.1029 10.0765C49.0211 9.9851 48.9562 9.87661 48.912 9.75721C48.8677 9.63781 48.8449 9.50971 48.8449 9.38047ZM53.483 11.5451C53.9697 11.5451 54.3638 11.9855 54.3638 12.5293C54.3638 13.0731 53.9697 13.5133 53.4831 13.5133H50.6651C50.1784 13.5133 49.7843 13.0729 49.7843 12.5292C49.7843 11.9854 50.1784 11.5451 50.6651 11.5451H53.483ZM39.3931 22.9593C34.7642 22.9593 30.9978 18.751 30.9978 13.5789C30.9978 8.40615 34.7642 4.1983 39.3931 4.1983C44.0224 4.1983 47.7884 8.40615 47.7884 13.5788C47.7884 18.7508 44.0224 22.9593 39.3931 22.9593ZM40.2738 6.23335V7.28139C40.2712 7.54041 40.1772 7.78782 40.0123 7.96993C39.8475 8.15204 39.625 8.25417 39.3931 8.25417C39.1613 8.25417 38.9388 8.15204 38.7739 7.96993C38.609 7.78782 38.5151 7.54041 38.5124 7.28139V6.23335C35.558 6.67331 33.2132 9.29366 32.8192 12.5948H33.7572C34.2437 12.5948 34.6378 13.0351 34.6378 13.5788C34.6378 14.1224 34.2437 14.5629 33.757 14.5629H32.8192C33.2133 17.8639 35.5579 20.4838 38.5124 20.9242V19.8761C38.5124 19.3325 38.9065 18.892 39.3931 18.892C39.8796 18.892 40.2738 19.3325 40.2738 19.8761V20.9242C43.2281 20.4838 45.5729 17.864 45.9671 14.5629H45.0291C44.5425 14.5629 44.1483 14.1224 44.1483 13.5788C44.1483 13.0351 44.5425 12.5946 45.0291 12.5946H45.9671C45.5729 9.29366 43.2283 6.67331 40.2738 6.23335Z" fill="#FF0000"/>
<path d="M42.6996 12.2981L39.8816 14.3971C39.4976 14.6836 38.9652 14.5812 38.6886 14.169L35.8707 9.97075C35.7306 9.76197 35.6705 9.49955 35.7036 9.24123C35.7366 8.98291 35.8601 8.74984 36.047 8.59328C36.1395 8.51571 36.2448 8.45928 36.3568 8.4272C36.4688 8.39512 36.5854 8.38803 36.6999 8.40634C36.8144 8.42464 36.9246 8.46797 37.0241 8.53386C37.1236 8.59975 37.2105 8.6869 37.2798 8.79034L39.5978 12.2439L41.7227 10.6608C41.9171 10.5161 42.155 10.4637 42.384 10.5149C42.613 10.5661 42.8145 10.7168 42.944 10.9339C43.0735 11.1511 43.1205 11.4167 43.0747 11.6726C43.0288 11.9284 42.8939 12.1534 42.6996 12.2981Z" fill="#FF0000"/>
</svg>
