<svg width="54" height="52" viewBox="0 0 54 52" fill="none" xmlns="http://www.w3.org/2000/svg">
<path d="M28.2726 5.37407C28.0259 5.35697 27.7823 5.43808 27.5951 5.59975C27.4079 5.76141 27.2921 5.99051 27.2731 6.23714C27.254 6.48377 27.3332 6.72793 27.4934 6.91642C27.6536 7.10491 27.8818 7.22246 28.1282 7.24345C31.1488 7.49438 34.0135 8.6908 36.3153 10.6627C38.6171 12.6347 40.239 15.2818 40.9504 18.2281C39.7539 18.2742 38.5714 17.9579 37.5576 17.3206C34.3247 15.8055 30.7968 15.0235 27.2264 15.0306C23.6561 15.0377 20.1314 15.8338 16.9045 17.3619C14.887 18.5225 13.6176 18.1456 13.1142 17.8906C13.8134 15.2197 15.2705 12.8082 17.3095 10.9467C19.3486 9.08533 21.8826 7.85357 24.6061 7.40001C24.8441 7.35127 25.0538 7.21204 25.1912 7.01167C25.3286 6.81129 25.3828 6.56542 25.3424 6.32585C25.3021 6.08629 25.1703 5.87174 24.9749 5.72742C24.7795 5.58311 24.5356 5.52028 24.2948 5.5522C6.31543 8.90845 6.37168 34.2022 24.2929 37.5781C26.4574 37.9474 28.6743 37.874 30.8096 37.3622C32.9448 36.8505 34.9542 35.9111 36.7161 34.6008C38.4781 33.2905 39.9561 31.6366 41.0607 29.7389C42.1654 27.8413 42.8737 25.7393 43.143 23.5602C43.4123 21.381 43.237 19.1699 42.6275 17.0604C42.0181 14.9509 40.9872 12.9869 39.5973 11.2871C38.2073 9.58731 36.4871 8.18701 34.5406 7.17085C32.5942 6.15469 30.4619 5.54376 28.2726 5.37501V5.37407ZM13.0542 24.9641L15.9286 24.6453C16.4912 24.5807 17.061 24.6637 17.5818 24.8863C18.1026 25.1089 18.5564 25.4633 18.8986 25.9147L21.8648 29.7631C22.1802 30.1809 22.3971 30.6645 22.4995 31.1778L23.2757 35.4341C20.7902 34.7648 18.5301 33.44 16.7319 31.5981C14.9337 29.7562 13.6635 27.465 13.0542 24.9641ZM25.2511 35.8128L24.3417 30.8291C24.1837 30.029 23.8458 29.2753 23.3536 28.625L20.3845 24.7719C19.8426 24.0681 19.1288 23.5155 18.3117 23.1671C17.4946 22.8187 16.6016 22.6863 15.7186 22.7825L12.7317 23.1134C12.599 22.0011 12.6085 20.8765 12.7598 19.7666C13.6067 20.0259 14.5011 20.0915 15.3768 19.9585C16.2524 19.8254 17.0869 19.4971 17.8186 18.9978C20.7852 17.6432 24.0084 16.9423 27.2697 16.9426C30.531 16.9429 33.7541 17.6445 36.7204 18.9997C37.9267 19.7267 39.3076 20.1129 40.7161 20.1172C41.6254 19.8669 41.2701 20.9469 41.362 21.5609C41.3588 22.0798 41.3269 22.5981 41.2664 23.1134L38.2814 22.7825C37.3984 22.6852 36.5053 22.817 35.6881 23.1651C34.8708 23.5132 34.157 24.0659 33.6154 24.77L30.6398 28.6306C30.1481 29.2829 29.8115 30.0385 29.6554 30.8403L28.7489 35.8128C27.5867 35.9558 26.4114 35.9558 25.2492 35.8128H25.2511ZM30.7242 35.4331L31.4986 31.1891C31.5992 30.674 31.8152 30.1884 32.1304 29.7688L35.1032 25.9119C35.446 25.4614 35.9 25.1079 36.4207 24.886C36.9414 24.6641 37.5109 24.5815 38.0732 24.6463L40.9457 24.965C40.3363 27.4657 39.066 29.7566 37.2678 31.5982C35.4696 33.4397 33.2096 34.7642 30.7242 35.4331ZM5.23731 40.385C5.13735 40.1573 4.95102 39.9785 4.7193 39.8882C4.48757 39.7978 4.22944 39.8032 4.00168 39.9031C3.77393 40.0031 3.59521 40.1894 3.50484 40.4211C3.41447 40.6529 3.41985 40.911 3.51981 41.1388C4.0294 42.0929 4.34024 43.1405 4.43353 44.2182C4.52683 45.2958 4.40065 46.3812 4.06262 47.4088L3.25637 49.7994C3.21292 49.9169 3.19349 50.042 3.19922 50.1672C3.20495 50.2924 3.23573 50.4152 3.28973 50.5283C3.34374 50.6414 3.41987 50.7425 3.51364 50.8257C3.6074 50.9089 3.71689 50.9724 3.83562 51.0125C3.95436 51.0527 4.07994 51.0686 4.20493 51.0593C4.32992 51.0501 4.45179 51.0158 4.56333 50.9587C4.67487 50.9015 4.77381 50.8226 4.85431 50.7265C4.93481 50.6304 4.99523 50.5192 5.032 50.3994L5.83825 48.0088C6.25236 46.7623 6.41254 45.4455 6.30933 44.1361C6.20612 42.8267 5.8416 41.5512 5.23731 40.385Z" fill="#FF0000"/>
<path d="M52.5479 36.4465C53.3399 34.6471 53.4652 32.6244 52.9013 30.7409L51.1454 24.8759C50.9471 24.2195 50.5992 23.6181 50.1291 23.119C49.6589 22.6199 49.0794 22.2367 48.436 21.9997L47.8266 21.7756C47.8276 21.7043 47.836 21.6331 47.836 21.5609C47.836 16.0349 45.6408 10.7352 41.7333 6.82768C37.8258 2.92018 32.5261 0.724976 27.0001 0.724976C21.474 0.724976 16.1743 2.92018 12.2668 6.82768C8.35934 10.7352 6.16414 16.0349 6.16414 21.5609C6.16414 21.634 6.17164 21.7062 6.17257 21.7794L5.56695 22.0025C4.9232 22.2389 4.34301 22.6213 3.87194 23.1197C3.40087 23.6181 3.05174 24.2189 2.85195 24.875L1.09882 30.7437C0.535487 32.6247 0.659434 34.6448 1.44851 36.4428C1.81601 37.1806 2.06914 38.5587 3.20914 38.1134C3.3218 38.0637 3.42357 37.9923 3.50863 37.9032C3.59368 37.8142 3.66036 37.7092 3.70485 37.5944C3.74934 37.4795 3.77076 37.3571 3.76791 37.234C3.76505 37.1108 3.73796 36.9895 3.6882 36.8769L3.1632 35.6862C2.55436 34.2957 2.45933 32.7341 2.89507 31.28L4.64726 25.415C4.76482 25.0228 4.97576 24.6649 5.262 24.3721C5.54825 24.0794 5.90124 23.8604 6.2907 23.734C6.40713 24.8467 6.61184 25.9482 6.90289 27.0284C6.3271 27.303 5.87151 27.7786 5.62185 28.3656C5.37218 28.9526 5.34566 29.6107 5.54726 30.2159L7.10351 34.8743C7.39704 35.7513 7.45778 36.6894 7.27976 37.5968C7.256 37.7177 7.25627 37.842 7.28056 37.9627C7.30485 38.0835 7.35268 38.1982 7.42133 38.3005C7.48997 38.4027 7.57808 38.4905 7.68062 38.5587C7.78317 38.6269 7.89814 38.6742 8.01898 38.6979C8.13982 38.7217 8.26415 38.7214 8.38488 38.6971C8.50561 38.6728 8.62038 38.625 8.72262 38.5564C8.82487 38.4877 8.91259 38.3996 8.98079 38.2971C9.04898 38.1945 9.09631 38.0796 9.12007 37.9587C9.78195 35.5775 7.97539 31.865 7.32476 29.6206C7.27542 29.4385 7.29339 29.2448 7.37537 29.0749C7.45735 28.9051 7.59784 28.7705 7.77106 28.6958C7.94428 28.6212 8.13861 28.6115 8.31838 28.6686C8.49816 28.7256 8.65132 28.8456 8.74976 29.0065C8.74976 29.0065 13.006 35.869 13.0398 35.9065C13.8869 37.0037 14.4228 38.3088 14.5913 39.6847C14.9148 41.9412 13.7382 44.0084 12.976 46.2809C12.3098 47.5963 12.0501 49.0802 12.2298 50.5437C12.2861 50.7826 12.4338 50.9899 12.6412 51.121C12.8486 51.2522 13.0992 51.2968 13.3392 51.2452C13.5791 51.1937 13.7893 51.0501 13.9245 50.8453C14.0598 50.6405 14.1094 50.3909 14.0626 50.15C13.9901 49.109 14.1939 48.0673 14.6532 47.1303C15.5719 44.555 16.8216 42.1334 16.456 39.5272C19.6499 41.4123 23.2909 42.4066 26.9996 42.4066C30.7084 42.4066 34.3493 41.4123 37.5432 39.5272C37.1776 42.1353 38.4263 44.5531 39.3451 47.1303C39.8049 48.0675 40.0089 49.1095 39.9366 50.1509C39.8913 50.3913 39.9417 50.6399 40.0771 50.8437C40.2125 51.0475 40.4222 51.1902 40.6614 51.2415C40.9006 51.2927 41.1504 51.2485 41.3574 51.1181C41.5645 50.9877 41.7123 50.7816 41.7695 50.5437C42.3104 46.5865 38.8613 43.4422 39.4079 39.6856C39.5827 38.3114 40.118 37.0079 40.9594 35.9075C40.9932 35.869 45.2485 29.0075 45.2485 29.0075C45.3469 28.8463 45.5002 28.726 45.6801 28.6688C45.8601 28.6116 46.0547 28.6213 46.2281 28.6962C46.4015 28.771 46.542 28.9059 46.6238 29.0761C46.7057 29.2463 46.7233 29.4403 46.6735 29.6225L45.1173 34.279C44.7798 35.3272 44.1188 38.914 45.9798 38.6975C46.2237 38.6494 46.4386 38.5065 46.5773 38.3002C46.716 38.0938 46.7671 37.8409 46.7194 37.5968C46.5412 36.6895 46.6016 35.7514 46.8948 34.8743L48.4519 30.2178C48.6541 29.6123 48.6278 28.9538 48.3781 28.3664C48.1284 27.7789 47.6725 27.3031 47.0963 27.0284C47.3877 25.9464 47.5924 24.8429 47.7085 23.7284L47.7929 23.7603C48.1625 23.8968 48.4955 24.1172 48.7655 24.4041C49.0355 24.6911 49.2353 25.0368 49.3491 25.414L51.1051 31.279C51.542 32.7355 51.4456 34.3 50.8332 35.6918L48.4632 41.0722C47.4951 43.2656 47.3863 45.7427 48.1585 48.0125L48.9704 50.4031C49.0504 50.6387 49.2208 50.8328 49.444 50.9428C49.6672 51.0528 49.925 51.0696 50.1605 50.9895C50.3961 50.9094 50.5903 50.7391 50.7002 50.5159C50.8102 50.2927 50.827 50.0349 50.7469 49.7993L49.9341 47.4097C49.3125 45.5842 49.3999 43.5918 50.1788 41.8278L52.5479 36.4465ZM43.6557 28.0184L39.4904 34.7422C38.9983 35.3747 38.5908 36.0686 38.2782 36.8065C35.0152 39.2257 31.0609 40.5315 26.999 40.5313C22.9371 40.5312 18.9828 39.225 15.7201 36.8056C15.4076 36.0684 15.0004 35.3751 14.5088 34.7431L10.3435 28.0193C9.99008 27.4583 9.44132 27.0482 8.8032 26.8681C2.15164 -0.818151 44.4816 -7.21752 45.9601 21.5619C45.9553 23.3577 45.6981 25.1439 45.196 26.8681C44.5579 27.0482 44.0091 27.4574 43.6557 28.0184Z" fill="#FF0000"/>
<path d="M31.3431 23.1181C31.1603 17.3769 22.8371 17.3787 22.6553 23.1181C22.8381 28.8584 31.1612 28.8575 31.3431 23.1181ZM26.9996 25.5865C26.3532 25.5739 25.7375 25.3083 25.2847 24.8466C24.832 24.385 24.5784 23.7642 24.5784 23.1176C24.5784 22.471 24.832 21.8503 25.2847 21.3886C25.7375 20.927 26.3532 20.6613 26.9996 20.6487C27.6461 20.6613 28.2618 20.927 28.7146 21.3886C29.1673 21.8503 29.4209 22.471 29.4209 23.1176C29.4209 23.7642 29.1673 24.385 28.7146 24.8466C28.2618 25.3083 27.6461 25.5739 26.9996 25.5865Z" fill="#FF0000"/>
</svg>
