<svg width="40" height="40" viewBox="0 0 40 40" fill="none" xmlns="http://www.w3.org/2000/svg">
<path d="M0 17.5262V38.2549L13.3778 27.8906L0 17.5262ZM34.902 12.1336V18.5067L38.8528 15.4458L34.902 12.1336ZM20.7576 0.275223C20.5455 0.0974679 20.2772 0 20 0C19.7228 0 19.4545 0.0974679 19.2424 0.275223L16.1228 2.89061H23.8771L20.7576 0.275223ZM5.09804 12.1336L1.14722 15.4458L5.09804 18.5067V12.1336ZM15.6977 29.0625L1.58008 40H38.4199L24.3023 29.0625H15.6977ZM26.6221 27.8906L40 38.255V17.5262L26.6221 27.8906ZM19.7035 14.0128C18.7492 14.0128 17.7621 14.937 17.7621 16.4836C17.7621 18.0559 18.7249 19.1122 19.6242 19.1122C20.5712 19.1122 21.3478 18.0085 21.4036 16.6208L21.4051 16.3262C21.3628 14.9572 20.6751 14.0128 19.7035 14.0128Z" fill="white"/>
<path d="M24.3025 26.7183L32.5492 20.3291V6.40576C32.5492 5.75857 32.0225 5.23389 31.3727 5.23389H8.62764C7.97792 5.23389 7.45117 5.75857 7.45117 6.40576V20.3292L15.6979 26.7183H24.3025ZM11.7067 18.7423C11.1449 16.6146 11.4274 14.3715 12.5023 12.4262C13.5767 10.4817 15.3276 9.04326 17.4325 8.37584C19.6531 7.67154 22.011 7.87904 24.0715 8.96006C26.1323 10.0412 27.6378 11.8596 28.3107 14.0804C28.3144 14.0925 28.3178 14.1047 28.3211 14.1169C28.7683 15.7856 28.6359 17.3609 27.8917 19.2246C27.3887 20.4843 26.1556 21.8304 24.203 21.8304C23.4946 21.8304 22.8153 21.541 22.2903 21.0154C22.1666 20.891 22.054 20.7561 21.9539 20.6121C21.2945 21.1463 20.4949 21.4554 19.6245 21.4554C18.4874 21.4554 17.3818 20.9055 16.5913 19.9468C15.8291 19.0224 15.4094 17.7923 15.4094 16.483C15.4094 15.1679 15.856 13.9509 16.667 13.0565C17.4667 12.1744 18.5736 11.6685 19.7037 11.6685C20.3253 11.6685 20.916 11.8161 21.4467 12.0941C21.5496 11.5509 22.0276 11.1405 22.6017 11.1405H22.6076C23.2574 11.1437 23.7815 11.671 23.7783 12.3182L23.7459 18.8287C23.7449 19.0287 23.8243 19.228 23.9582 19.3621C24.0046 19.4086 24.0981 19.4865 24.203 19.4865C25.1523 19.4865 25.5699 18.6975 25.7053 18.3583C26.2549 16.982 26.359 15.8983 26.0525 14.7393C25.5605 13.1326 24.4682 11.817 22.9751 11.0337C21.4767 10.2476 19.7616 10.0969 18.1462 10.609C14.962 11.6187 13.133 14.9294 13.9823 18.1461C14.6876 20.8173 17.1116 22.7362 19.8772 22.8124C20.5266 22.8303 21.0387 23.3693 21.0207 24.0162C21.003 24.6522 20.4799 25.1557 19.8453 25.1557C19.8342 25.1557 19.8233 25.1555 19.8121 25.1552C17.989 25.105 16.1893 24.4599 14.7445 23.3387C13.2435 22.174 12.1931 20.5846 11.7067 18.7423Z" fill="white"/>
</svg>
