<svg width="36" height="39" viewBox="0 0 36 39" fill="none" xmlns="http://www.w3.org/2000/svg">
<path d="M18 0C10.9715 0 5.10938 5.66172 5.10938 12.8906C5.10938 15.6408 5.93578 18.0931 7.5218 20.3911L17.0135 35.202C17.474 35.922 18.527 35.9206 18.9865 35.202L28.5194 20.3407C30.0713 18.1469 30.8906 15.5709 30.8906 12.8906C30.8906 5.78273 25.1079 0 18 0ZM18 18.75C14.7693 18.75 12.1406 16.1213 12.1406 12.8906C12.1406 9.65992 14.7693 7.03125 18 7.03125C21.2307 7.03125 23.8594 9.65992 23.8594 12.8906C23.8594 16.1213 21.2307 18.75 18 18.75Z" fill="white"/>
<path d="M27.1613 25.7412L21.2604 34.9668C19.733 37.3482 16.2585 37.3404 14.7384 34.969L8.82797 25.7436C3.62766 26.946 0.421875 29.1486 0.421875 31.7807C0.421875 36.348 9.47875 38.8119 18 38.8119C26.5212 38.8119 35.5781 36.348 35.5781 31.7807C35.5781 29.1467 32.3679 26.9429 27.1613 25.7412Z" fill="white"/>
</svg>
