<svg width="160" height="99" viewBox="0 0 160 99" fill="none" xmlns="http://www.w3.org/2000/svg">
<path d="M30.4487 0L0 58.2243L4.56731 65.2514H41.1058L33.4936 53.205H18.7767L27.9113 32.1238L34.0011 19.5754L35.5235 23.089L56.8376 65.2514H124.84L118.75 52.703H105.556C112.457 35.035 99.2967 28.6102 91.8537 27.6064V26.1006C94.2896 23.2897 93.8836 15.8946 93.3761 12.5483C92.5641 3.71431 82.8882 0.501934 78.1517 0H53.2853L59.8825 12.5483H75.6143C77.1368 12.5483 80.2831 13.753 80.6891 18.5716C81.0951 23.3901 77.4751 25.5986 75.6143 26.1006H68.0022L75.6143 39.1508H88.3013C90.1621 38.9835 93.9851 39.7532 94.3911 44.1702C94.797 48.5872 91.177 50.3607 89.3163 50.6953H64.9573L38.5684 0H30.4487Z" fill="#FF0000"/>
<path d="M30.9562 43.1663V37.645H36.5385V43.1663H30.9562Z" fill="#FF0000"/>
<path d="M115.198 42.6644V37.645H120.272V42.6644H115.198Z" fill="#FF0000"/>
<path d="M157.318 64.7495H141.079L117.735 19.5754L114.183 24.5948L107.078 13.5522L114.183 0.501934H122.302L157.318 64.7495Z" fill="#FF0000"/>
<path d="M0.768715 84.3756C0.768715 83.16 1.04283 82.0695 1.59106 81.1041C2.13929 80.1269 2.88417 79.3641 3.8257 78.8159C4.77914 78.2676 5.83389 77.9935 6.98994 77.9935C8.3486 77.9935 9.53445 78.3213 10.5475 78.9768C11.5605 79.6323 12.2994 80.5619 12.7642 81.7656H10.8156C10.47 81.0147 9.96946 80.4367 9.31397 80.0315C8.67039 79.6263 7.89572 79.4237 6.98994 79.4237C6.11993 79.4237 5.33929 79.6263 4.64804 80.0315C3.9568 80.4367 3.41453 81.0147 3.02123 81.7656C2.62793 82.5045 2.43128 83.3745 2.43128 84.3756C2.43128 85.3648 2.62793 86.2349 3.02123 86.9857C3.41453 87.7246 3.9568 88.2967 4.64804 88.7019C5.33929 89.1071 6.11993 89.3097 6.98994 89.3097C7.89572 89.3097 8.67039 89.1131 9.31397 88.7198C9.96946 88.3146 10.47 87.7365 10.8156 86.9857H12.7642C12.2994 88.1775 11.5605 89.1012 10.5475 89.7566C9.53445 90.4002 8.3486 90.722 6.98994 90.722C5.83389 90.722 4.77914 90.4539 3.8257 89.9175C2.88417 89.3693 2.13929 88.6125 1.59106 87.6471C1.04283 86.6818 0.768715 85.5913 0.768715 84.3756ZM33.0987 87.8438H27.6641L26.663 90.6147H24.9468L29.4518 78.2259H31.3289L35.8161 90.6147H34.0999L33.0987 87.8438ZM32.6339 86.5209L30.3814 80.2282L28.1289 86.5209H32.6339ZM54.8878 90.6147L51.9202 85.5198H49.9538V90.6147H48.327V78.1544H52.3493C53.2908 78.1544 54.0834 78.3153 54.727 78.6371C55.3824 78.9589 55.8711 79.3939 56.1929 79.9421C56.5147 80.4904 56.6756 81.116 56.6756 81.8192C56.6756 82.6773 56.4253 83.4341 55.9247 84.0896C55.4361 84.7451 54.6972 85.1801 53.708 85.3946L56.8365 90.6147H54.8878ZM49.9538 84.2147H52.3493C53.2312 84.2147 53.8927 84.0002 54.3337 83.5712C54.7746 83.1302 54.9951 82.5462 54.9951 81.8192C54.9951 81.0803 54.7746 80.5082 54.3337 80.103C53.9046 79.6978 53.2432 79.4952 52.3493 79.4952H49.9538V84.2147ZM76.3117 90.6147L73.3441 85.5198H71.3777V90.6147H69.7508V78.1544H73.7732C74.7147 78.1544 75.5073 78.3153 76.1508 78.6371C76.8063 78.9589 77.295 79.3939 77.6168 79.9421C77.9385 80.4904 78.0994 81.116 78.0994 81.8192C78.0994 82.6773 77.8492 83.4341 77.3486 84.0896C76.86 84.7451 76.121 85.1801 75.1318 85.3946L78.2603 90.6147H76.3117ZM71.3777 84.2147H73.7732C74.6551 84.2147 75.3166 84.0002 75.7575 83.5712C76.1985 83.1302 76.419 82.5462 76.419 81.8192C76.419 81.0803 76.1985 80.5082 75.7575 80.103C75.3285 79.6978 74.667 79.4952 73.7732 79.4952H71.3777V84.2147ZM92.8015 78.1544V90.6147H91.1747V78.1544H92.8015ZM107.748 79.4773V83.6427H112.289V84.9835H107.748V89.274H112.826V90.6147H106.122V78.1365H112.826V79.4773H107.748ZM132.396 90.6147L129.428 85.5198H127.461V90.6147H125.835V78.1544H129.857C130.799 78.1544 131.591 78.3153 132.235 78.6371C132.89 78.9589 133.379 79.3939 133.701 79.9421C134.022 80.4904 134.183 81.116 134.183 81.8192C134.183 82.6773 133.933 83.4341 133.432 84.0896C132.944 84.7451 132.205 85.1801 131.216 85.3946L134.344 90.6147H132.396ZM127.461 84.2147H129.857C130.739 84.2147 131.4 84.0002 131.841 83.5712C132.282 83.1302 132.503 82.5462 132.503 81.8192C132.503 81.0803 132.282 80.5082 131.841 80.103C131.412 79.6978 130.751 79.4952 129.857 79.4952H127.461V84.2147ZM151.209 90.7399C150.387 90.7399 149.648 90.5969 148.993 90.3108C148.349 90.0129 147.842 89.6077 147.473 89.0952C147.104 88.5708 146.913 87.9689 146.901 87.2896H148.635C148.695 87.8736 148.933 88.3682 149.35 88.7734C149.779 89.1667 150.399 89.3633 151.209 89.3633C151.984 89.3633 152.592 89.1727 153.033 88.7913C153.486 88.398 153.712 87.8974 153.712 87.2896C153.712 86.8129 153.581 86.4255 153.319 86.1276C153.057 85.8296 152.729 85.6032 152.336 85.4483C151.942 85.2933 151.412 85.1265 150.745 84.9477C149.922 84.7332 149.261 84.5187 148.76 84.3041C148.272 84.0896 147.848 83.7559 147.491 83.303C147.145 82.8382 146.972 82.2185 146.972 81.4438C146.972 80.7645 147.145 80.1626 147.491 79.6382C147.837 79.1138 148.319 78.7086 148.939 78.4226C149.571 78.1365 150.292 77.9935 151.102 77.9935C152.27 77.9935 153.224 78.2855 153.962 78.8695C154.713 79.4535 155.136 80.2282 155.232 81.1935H153.444C153.384 80.7168 153.134 80.2997 152.693 79.9421C152.252 79.5727 151.668 79.3879 150.941 79.3879C150.262 79.3879 149.708 79.5667 149.279 79.9242C148.85 80.2699 148.635 80.7585 148.635 81.3902C148.635 81.8431 148.76 82.2125 149.01 82.4985C149.273 82.7846 149.588 83.0051 149.958 83.16C150.339 83.303 150.87 83.4699 151.549 83.6606C152.371 83.887 153.033 84.1134 153.533 84.3399C154.034 84.5544 154.463 84.8941 154.821 85.3589C155.178 85.8118 155.357 86.4315 155.357 87.2181C155.357 87.8259 155.196 88.398 154.874 88.9343C154.552 89.4706 154.076 89.9056 153.444 90.2393C152.812 90.573 152.067 90.7399 151.209 90.7399Z" fill="#FF0000"/>
</svg>
