<svg width="158" height="66" viewBox="0 0 158 66" fill="none" xmlns="http://www.w3.org/2000/svg">
<path d="M30.4487 0L0 58.2243L4.56731 65.2514H41.1058L33.4936 53.205H18.7767L27.9113 32.1238L34.0011 19.5754L35.5235 23.089L56.8376 65.2514H124.84L118.75 52.703H105.556C112.457 35.035 99.2967 28.6102 91.8537 27.6064V26.1006C94.2896 23.2897 93.8836 15.8946 93.3761 12.5483C92.5641 3.71431 82.8882 0.501934 78.1517 0H53.2853L59.8825 12.5483H75.6143C77.1368 12.5483 80.2831 13.753 80.6891 18.5716C81.0951 23.3901 77.4751 25.5986 75.6143 26.1006H68.0022L75.6143 39.1508H88.3013C90.1621 38.9835 93.9851 39.7532 94.3911 44.1702C94.797 48.5872 91.177 50.3607 89.3163 50.6953H64.9573L38.5684 0H30.4487Z" fill="white"/>
<path d="M30.9562 43.1663V37.645H36.5385V43.1663H30.9562Z" fill="white"/>
<path d="M115.198 42.6644V37.645H120.272V42.6644H115.198Z" fill="white"/>
<path d="M157.318 64.7495H141.079L117.735 19.5754L114.183 24.5948L107.078 13.5522L114.183 0.501934H122.302L157.318 64.7495Z" fill="white"/>
</svg>
