<svg width="160" height="99" viewBox="0 0 160 99" fill="none" xmlns="http://www.w3.org/2000/svg">
<path d="M30.4487 0L0 58.2243L4.56731 65.2514H41.1058L33.4936 53.205H18.7767L27.9113 32.1238L34.0011 19.5754L35.5235 23.089L56.8376 65.2514H124.84L118.75 52.703H105.556C112.457 35.035 99.2967 28.6102 91.8537 27.6064V26.1006C94.2896 23.2897 93.8836 15.8946 93.3761 12.5483C92.5641 3.71431 82.8882 0.501934 78.1517 0H53.2853L59.8825 12.5483H75.6143C77.1368 12.5483 80.2831 13.753 80.6891 18.5716C81.0951 23.3901 77.4751 25.5986 75.6143 26.1006H68.0022L75.6143 39.1508H88.3013C90.1621 38.9835 93.9851 39.7532 94.3911 44.1702C94.797 48.5872 91.177 50.3607 89.3163 50.6953H64.9573L38.5684 0H30.4487Z" fill="white"/>
<path d="M30.9562 43.1663V37.645H36.5385V43.1663H30.9562Z" fill="white"/>
<path d="M115.198 42.6644V37.645H120.272V42.6644H115.198Z" fill="white"/>
<path d="M157.318 64.7495H141.079L117.735 19.5754L114.183 24.5948L107.078 13.5522L114.183 0.501934H122.302L157.318 64.7495Z" fill="white"/>
<path d="M0.768715 84.3754C0.768715 83.1598 1.04283 82.0693 1.59106 81.1039C2.13929 80.1266 2.88417 79.3639 3.8257 78.8156C4.77914 78.2674 5.83389 77.9933 6.98994 77.9933C8.3486 77.9933 9.53445 78.3211 10.5475 78.9765C11.5605 79.632 12.2994 80.5616 12.7642 81.7654H10.8156C10.47 81.0145 9.96946 80.4365 9.31397 80.0313C8.67039 79.6261 7.89572 79.4235 6.98994 79.4235C6.11993 79.4235 5.33929 79.6261 4.64804 80.0313C3.9568 80.4365 3.41453 81.0145 3.02123 81.7654C2.62793 82.5043 2.43128 83.3743 2.43128 84.3754C2.43128 85.3646 2.62793 86.2346 3.02123 86.9855C3.41453 87.7244 3.9568 88.2965 4.64804 88.7017C5.33929 89.1069 6.11993 89.3095 6.98994 89.3095C7.89572 89.3095 8.67039 89.1129 9.31397 88.7196C9.96946 88.3143 10.47 87.7363 10.8156 86.9855H12.7642C12.2994 88.1773 11.5605 89.1009 10.5475 89.7564C9.53445 90.4 8.3486 90.7218 6.98994 90.7218C5.83389 90.7218 4.77914 90.4536 3.8257 89.9173C2.88417 89.3691 2.13929 88.6123 1.59106 87.6469C1.04283 86.6816 0.768715 85.5911 0.768715 84.3754ZM33.0987 87.8436H27.6641L26.663 90.6145H24.9468L29.4518 78.2257H31.3289L35.8161 90.6145H34.0999L33.0987 87.8436ZM32.6339 86.5207L30.3814 80.2279L28.1289 86.5207H32.6339ZM54.8878 90.6145L51.9202 85.5196H49.9538V90.6145H48.327V78.1542H52.3493C53.2908 78.1542 54.0834 78.3151 54.727 78.6369C55.3824 78.9587 55.8711 79.3937 56.1929 79.9419C56.5147 80.4901 56.6756 81.1158 56.6756 81.819C56.6756 82.6771 56.4253 83.4339 55.9247 84.0894C55.4361 84.7449 54.6972 85.1799 53.708 85.3944L56.8365 90.6145H54.8878ZM49.9538 84.2145H52.3493C53.2312 84.2145 53.8927 84 54.3337 83.571C54.7746 83.13 54.9951 82.546 54.9951 81.819C54.9951 81.0801 54.7746 80.508 54.3337 80.1028C53.9046 79.6976 53.2432 79.495 52.3493 79.495H49.9538V84.2145ZM76.3117 90.6145L73.3441 85.5196H71.3777V90.6145H69.7508V78.1542H73.7732C74.7147 78.1542 75.5073 78.3151 76.1508 78.6369C76.8063 78.9587 77.295 79.3937 77.6168 79.9419C77.9385 80.4901 78.0994 81.1158 78.0994 81.819C78.0994 82.6771 77.8492 83.4339 77.3486 84.0894C76.86 84.7449 76.121 85.1799 75.1318 85.3944L78.2603 90.6145H76.3117ZM71.3777 84.2145H73.7732C74.6551 84.2145 75.3166 84 75.7575 83.571C76.1985 83.13 76.419 82.546 76.419 81.819C76.419 81.0801 76.1985 80.508 75.7575 80.1028C75.3285 79.6976 74.667 79.495 73.7732 79.495H71.3777V84.2145ZM92.8015 78.1542V90.6145H91.1747V78.1542H92.8015ZM107.748 79.4771V83.6425H112.289V84.9832H107.748V89.2738H112.826V90.6145H106.122V78.1363H112.826V79.4771H107.748ZM132.396 90.6145L129.428 85.5196H127.461V90.6145H125.835V78.1542H129.857C130.799 78.1542 131.591 78.3151 132.235 78.6369C132.89 78.9587 133.379 79.3937 133.701 79.9419C134.022 80.4901 134.183 81.1158 134.183 81.819C134.183 82.6771 133.933 83.4339 133.432 84.0894C132.944 84.7449 132.205 85.1799 131.216 85.3944L134.344 90.6145H132.396ZM127.461 84.2145H129.857C130.739 84.2145 131.4 84 131.841 83.571C132.282 83.13 132.503 82.546 132.503 81.819C132.503 81.0801 132.282 80.508 131.841 80.1028C131.412 79.6976 130.751 79.495 129.857 79.495H127.461V84.2145ZM151.209 90.7397C150.387 90.7397 149.648 90.5967 148.993 90.3106C148.349 90.0127 147.842 89.6075 147.473 89.095C147.104 88.5706 146.913 87.9687 146.901 87.2894H148.635C148.695 87.8734 148.933 88.368 149.35 88.7732C149.779 89.1665 150.399 89.3631 151.209 89.3631C151.984 89.3631 152.592 89.1724 153.033 88.7911C153.486 88.3978 153.712 87.8972 153.712 87.2894C153.712 86.8127 153.581 86.4253 153.319 86.1274C153.057 85.8294 152.729 85.603 152.336 85.4481C151.942 85.2931 151.412 85.1263 150.745 84.9475C149.922 84.733 149.261 84.5184 148.76 84.3039C148.272 84.0894 147.848 83.7557 147.491 83.3028C147.145 82.838 146.972 82.2183 146.972 81.4436C146.972 80.7643 147.145 80.1624 147.491 79.638C147.837 79.1136 148.319 78.7084 148.939 78.4224C149.571 78.1363 150.292 77.9933 151.102 77.9933C152.27 77.9933 153.224 78.2853 153.962 78.8693C154.713 79.4533 155.136 80.2279 155.232 81.1933H153.444C153.384 80.7166 153.134 80.2994 152.693 79.9419C152.252 79.5724 151.668 79.3877 150.941 79.3877C150.262 79.3877 149.708 79.5665 149.279 79.924C148.85 80.2697 148.635 80.7583 148.635 81.39C148.635 81.8428 148.76 82.2123 149.01 82.4983C149.273 82.7844 149.588 83.0048 149.958 83.1598C150.339 83.3028 150.87 83.4697 151.549 83.6603C152.371 83.8868 153.033 84.1132 153.533 84.3397C154.034 84.5542 154.463 84.8939 154.821 85.3587C155.178 85.8116 155.357 86.4313 155.357 87.2179C155.357 87.8257 155.196 88.3978 154.874 88.9341C154.552 89.4704 154.076 89.9054 153.444 90.2391C152.812 90.5728 152.067 90.7397 151.209 90.7397Z" fill="white"/>
</svg>
