<svg width="25" height="26" viewBox="0 0 25 26" fill="none" xmlns="http://www.w3.org/2000/svg">
<path d="M12.5 0.749878C5.60728 0.749878 0 6.35715 0 13.2499C0 20.1426 5.60728 25.7499 12.5 25.7499C19.3927 25.7499 25 20.1426 25 13.2499C25 6.35715 19.3927 0.749878 12.5 0.749878ZM16.3615 13.9864L11.1531 19.1947C11.0565 19.2915 10.9417 19.3683 10.8153 19.4207C10.6889 19.4731 10.5535 19.5 10.4166 19.4999C10.2798 19.5 10.1444 19.4731 10.018 19.4207C9.89159 19.3683 9.77679 19.2915 9.68018 19.1947C9.2729 18.7874 9.2729 18.129 9.68018 17.7218L14.1521 13.2499L9.68023 8.778C9.27295 8.37073 9.27295 7.71238 9.68023 7.3051C10.0875 6.89783 10.7458 6.89783 11.1531 7.3051L16.3615 12.5135C16.7688 12.9207 16.7688 13.579 16.3615 13.9864Z" fill="#FF0000"/>
</svg>
